<svg width="256" height="256" viewBox="0 0 256 256" fill="none" xmlns="http://www.w3.org/2000/svg">
<path d="M111.708 20.2734C78.7544 25.3085 49.8299 44.9346 32.7851 73.7058C30.7189 77.0971 31.5452 76.4799 37.3304 70.4174C49.1064 57.8818 64.705 49.0446 81.8534 45.3454C85.2624 44.626 93.6295 44.0095 100.447 44.0095C140.632 44.2152 175.135 68.6707 184.123 103.504C186.189 111.417 186.085 127.652 184.019 137.722C179.577 159.506 164.185 176.461 143.421 182.523C136.5 184.578 121.005 184.681 113.877 182.728C100.551 179.235 87.7414 169.781 80.0972 157.965C75.2419 150.258 75.0355 151.388 79.6836 160.945C88.7742 179.44 107.265 194.031 129.373 199.888C142.905 203.587 162.532 203.896 176.581 200.71C202.097 194.854 222.344 177.282 231.125 153.34C241.869 124.158 237.84 94.8736 219.349 67.2326C196.106 32.3983 153.442 13.8002 111.708 20.2734Z" fill="#000C36"/>
<path d="M82.37 55.2099C56.9573 60.245 38.0533 74.836 27.6193 97.339C22.6612 107.923 20.595 115.732 19.4587 127.96C18.2195 140.085 19.4587 149.538 23.5911 162.075C35.5736 197.731 64.0852 224.446 100.758 234.208C109.538 236.572 112.844 236.88 127.823 236.983C142.595 237.086 146.107 236.777 154.165 234.62C166.354 231.434 179.37 225.782 188.874 219.617C199.308 212.835 213.15 198.861 220.175 188.072C226.993 177.694 227.612 175.741 221.828 183.037C205.093 204.101 173.999 215.815 144.868 212.014C123.69 209.239 106.646 201.018 92.0805 186.736C84.4355 179.132 81.9564 175.844 78.4446 168.754C72.3495 156.423 70.5932 148.922 70.6968 135.358C70.9032 115.013 76.4812 100.525 88.6715 88.3997C100.448 76.7885 114.497 71.4454 131.335 72.4727C152.099 73.6029 169.66 85.1113 179.164 103.813C183.296 111.828 180.714 104.121 176.168 94.8729C166.664 75.2468 146.004 60.3479 121.418 55.3128C111.811 53.3603 91.9769 53.2574 82.37 55.2099Z" fill="#000C36"/>
</svg>
