<svg width="256" height="256" viewBox="0 0 256 256" fill="none" xmlns="http://www.w3.org/2000/svg">
<g clip-path="url(#clip0_4_86)">
<path d="M128 24V232" stroke="black" stroke-width="16" stroke-linecap="round" stroke-linejoin="round"/>
<path d="M184 88C184 82.7471 182.965 77.5457 180.955 72.6927C178.945 67.8396 175.999 63.4301 172.284 59.7157C168.57 56.0014 164.16 53.055 159.307 51.0448C154.454 49.0346 149.253 48 144 48H112C101.391 48 91.2172 52.2143 83.7157 59.7157C76.2143 67.2172 72 77.3913 72 88C72 98.6087 76.2143 108.783 83.7157 116.284C91.2172 123.786 101.391 128 112 128H152C162.609 128 172.783 132.214 180.284 139.716C187.786 147.217 192 157.391 192 168C192 178.609 187.786 188.783 180.284 196.284C172.783 203.786 162.609 208 152 208H104C93.3913 208 83.2172 203.786 75.7157 196.284C68.2143 188.783 64 178.609 64 168" stroke="black" stroke-width="16" stroke-linecap="round" stroke-linejoin="round"/>
</g>
<defs>
<clipPath id="clip0_4_86">
<rect width="256" height="256" fill="white"/>
</clipPath>
</defs>
</svg>
